<svg width="18" height="21" viewBox="0 0 18 21" fill="none" xmlns="http://www.w3.org/2000/svg">
<g clip-path="url(#clip0_52_221)">
<path d="M10.2857 1.3125V2.04586C13.1986 2.51795 15.4285 5.09414 15.4285 8.20312V9.57305C15.4285 11.4352 16.0513 13.2439 17.1883 14.7L17.787 15.4629C18.02 15.7582 18.0642 16.1643 17.9035 16.5047C17.7428 16.8451 17.4053 17.0625 17.0357 17.0625H0.964232C0.593384 17.0625 0.255683 16.8451 0.0951294 16.5047C-0.0654644 16.1643 -0.0203037 15.7582 0.211286 15.4629L0.810348 14.7C1.95021 13.2439 2.57138 11.4352 2.57138 9.57305V8.20312C2.57138 5.09414 4.80129 2.51795 7.71423 2.04586V1.3125C7.71423 0.587754 8.28879 0 8.99995 0C9.71111 0 10.2857 0.587754 10.2857 1.3125ZM8.67852 3.9375C6.37227 3.9375 4.49995 5.84883 4.49995 8.20312V9.57305C4.49995 11.5377 3.94227 13.4531 2.90526 15.0938H15.095C14.0584 13.4531 13.4999 11.5377 13.4999 9.57305V8.20312C13.4999 5.84883 11.6276 3.9375 9.32138 3.9375H8.67852ZM11.5714 18.375C11.5714 19.0354 11.3022 19.7408 10.82 20.233C10.3379 20.7252 9.64682 21 8.99995 21C8.31691 21 7.662 20.7252 7.17986 20.233C6.69772 19.7408 6.42852 19.0354 6.42852 18.375H11.5714Z" fill="black"/>
</g>
<defs>
<clipPath id="clip0_52_221">
<rect width="18" height="21" fill="black"/>
</clipPath>
</defs>
</svg>
