<svg width="17" height="21" viewBox="0 0 17 21" fill="none" xmlns="http://www.w3.org/2000/svg">
<path d="M1.65219 0.00275087C0.713469 0.00275087 0 0.764032 0 1.70275V18.6974C0 19.6362 0.761281 20.3974 1.7 20.3974C2.63872 20.3534 3.4 19.6362 3.4 18.6534V1.70275C3.4 0.764032 2.63872 0.00275087 1.65219 0.00275087ZM14.2109 0.394814L4.01094 8.847C3.60294 9.23429 3.4 9.71772 3.4 10.2012C3.4 10.6843 3.60294 11.167 4.00775 11.5091L14.2078 19.9613C15.3037 20.8708 16.9973 20.1074 16.9973 18.6534V1.65866C16.9522 0.24872 15.3053 -0.515218 14.2109 0.394814Z" fill="#F7DE8D"/>
</svg>
