<svg width="18" height="21" viewBox="0 0 18 21" fill="none" xmlns="http://www.w3.org/2000/svg">
<g clip-path="url(#clip0_55_7)">
<path d="M5.43214 0.710759C5.64911 0.275143 6.09509 0 6.58125 0H11.4188C11.9049 0 12.3509 0.275143 12.5679 0.710759L12.8571 1.28571H16.7143C17.4254 1.28571 18 1.86147 18 2.57143C18 3.28138 17.4254 3.85714 16.7143 3.85714H1.28571C0.575759 3.85714 0 3.28138 0 2.57143C0 1.86147 0.575759 1.28571 1.28571 1.28571H5.14286L5.43214 0.710759ZM1.24955 5.14286H16.7143V18C16.7143 19.4183 15.5612 20.5714 14.1429 20.5714H3.82098C2.43683 20.5714 1.24955 19.4183 1.24955 18V5.14286ZM4.46384 8.35714V17.3571C4.46384 17.7107 4.78929 18 5.1067 18C5.49643 18 5.74955 17.7107 5.74955 17.3571V8.35714C5.74955 8.00357 5.49643 7.71429 5.1067 7.71429C4.78929 7.71429 4.46384 8.00357 4.46384 8.35714ZM8.32098 8.35714V17.3571C8.32098 17.7107 8.64643 18 8.96384 18C9.35357 18 9.64286 17.7107 9.64286 17.3571V8.35714C9.64286 8.00357 9.35357 7.71429 8.96384 7.71429C8.64643 7.71429 8.32098 8.00357 8.32098 8.35714ZM12.2143 8.35714V17.3571C12.2143 17.7107 12.5036 18 12.8571 18C13.2107 18 13.5 17.7107 13.5 17.3571V8.35714C13.5 8.00357 13.2107 7.71429 12.8571 7.71429C12.5036 7.71429 12.2143 8.00357 12.2143 8.35714Z" fill="black"/>
</g>
<defs>
<clipPath id="clip0_55_7">
<rect width="18" height="20.5714" fill="black"/>
</clipPath>
</defs>
</svg>
