<svg width="19" height="19" viewBox="0 0 19 19" fill="none" xmlns="http://www.w3.org/2000/svg">
<path d="M17.8125 13.0625H12.8584L11.1792 14.7417C10.732 15.1889 10.1346 15.4375 9.5 15.4375C8.86543 15.4375 8.26945 15.1905 7.8208 14.7417L6.1416 13.0625H1.1875C0.531777 13.0625 0 13.5943 0 14.25V17.8125C0 18.4682 0.531777 19 1.1875 19H17.8125C18.4682 19 19 18.4682 19 17.8125V14.25C19 13.5932 18.4693 13.0625 17.8125 13.0625ZM16.0312 16.9219C15.5414 16.9219 15.1406 16.5211 15.1406 16.0312C15.1406 15.5414 15.5414 15.1406 16.0312 15.1406C16.5211 15.1406 16.9219 15.5414 16.9219 16.0312C16.9219 16.5211 16.5211 16.9219 16.0312 16.9219ZM8.66133 13.9012C8.89141 14.135 9.1957 14.25 9.5 14.25C9.8043 14.25 10.1079 14.134 10.3394 13.9021L15.0894 9.1521C15.5529 8.68823 15.5529 7.93677 15.0894 7.4729C14.6255 7.00903 13.8737 7.00903 13.4102 7.4729L10.6875 10.1977V1.1875C10.6875 0.531777 10.1557 0 9.5 0C8.84316 0 8.3125 0.531777 8.3125 1.1875V10.1977L5.58867 7.47383C5.12518 7.00996 4.37334 7.00996 3.90947 7.47383C3.44598 7.9377 3.44598 8.68916 3.90947 9.15303L8.66133 13.9012Z" fill="#040303"/>
</svg>
