<svg width="18" height="18" viewBox="0 0 18 18" fill="none" xmlns="http://www.w3.org/2000/svg">
<path d="M8.57812 2.95311L8.96836 3.37499L9.39023 2.95382C10.568 1.80597 12.1992 1.28354 13.8023 1.55038C16.2246 1.95397 18 4.04999 18 6.50741V6.71132C18 8.1703 17.3953 9.56601 16.3266 10.5609L9.97383 16.4918C9.71016 16.7379 9.36211 16.875 9 16.875C8.63789 16.875 8.28984 16.7379 8.02617 16.4918L1.67309 10.5609C0.605742 9.56601 0 8.1703 0 6.71132V6.50741C0 4.04999 1.77609 1.95397 4.19766 1.55038C5.76914 1.28354 7.43203 1.80597 8.57812 2.95311C8.54648 2.95311 8.57812 2.95347 8.57812 2.95311ZM8.96836 5.7621L7.38633 4.11679C6.62344 3.38483 5.54063 3.03749 4.47539 3.21468C2.86699 3.48292 1.6875 4.87616 1.6875 6.50741V6.71132C1.6875 7.70272 2.09918 8.65194 2.82445 9.32694L9 15.0926L15.177 9.32694C15.9012 8.65194 16.3125 7.70272 16.3125 6.71132V6.50741C16.3125 4.87616 15.1313 3.48292 13.5246 3.21468C12.4594 3.03749 11.3766 3.38483 10.6137 4.11679L8.96836 5.7621Z" fill="#C4C4C4" fill-opacity="0.7"/>
</svg>
