<svg width="19" height="17" viewBox="0 0 19 17" fill="none" xmlns="http://www.w3.org/2000/svg">
<path d="M18.9934 8.4834C18.9934 9.08105 18.4986 9.54922 17.9378 9.54922H16.8823L16.9054 14.865C16.9054 14.958 16.8988 15.0443 16.8889 15.134V15.6719C16.8889 16.4057 16.2984 17 15.5694 17H15.0417C15.0054 17 14.9691 16.9701 14.9328 16.9967C14.8866 16.9701 14.8405 17 14.7943 17H12.9306C12.2016 17 11.6111 16.4057 11.6111 15.6719V12.75C11.6111 12.1623 11.1394 11.6875 10.5556 11.6875H8.44444C7.86059 11.6875 7.38889 12.1623 7.38889 12.75V15.6719C7.38889 16.4057 6.79844 17 6.06944 17H4.22552C4.17604 17 4.12656 16.9967 4.07708 16.9934C4.0375 16.9967 3.99792 17 3.95833 17H3.43056C2.70189 17 2.11111 16.4057 2.11111 15.6719V11.9531C2.11111 11.9232 2.1121 11.89 2.11408 11.8602V9.54922H1.0572C0.462465 9.54922 0 9.08105 0 8.4834C0 8.18457 0.0990903 7.91895 0.330191 7.68652L8.7875 0.266156C9.0184 0.0332695 9.28229 0 9.51319 0C9.7441 0 10.008 0.066539 10.2092 0.232887L18.6306 7.68652C18.8944 7.91895 19.0297 8.18457 18.9934 8.4834Z" fill="#040303"/>
</svg>
