<svg viewBox="0 0 154.36 241.46" xmlns="http://www.w3.org/2000/svg" xmlns:xlink="http://www.w3.org/1999/xlink"><linearGradient id="a" gradientUnits="userSpaceOnUse" x1="77.18" x2="77.18" y2="241.46"><stop offset="0" stop-color="#d9eaa1"/><stop offset=".06" stop-color="#bde4a4"/><stop offset=".17" stop-color="#8dd9a9"/><stop offset=".29" stop-color="#63cfae"/><stop offset=".41" stop-color="#41c8b1"/><stop offset=".53" stop-color="#27c2b4"/><stop offset=".66" stop-color="#14bdb6"/><stop offset=".78" stop-color="#09bbb8"/><stop offset=".92" stop-color="#05bab8"/></linearGradient><path d="m52.83 241.46a52.74 52.74 0 0 1 -52.77-50.33 51.11 51.11 0 0 1 14.23-38c10.65-11.17 25.59-17.32 42.07-17.32h19.83a7.5 7.5 0 0 1 0 15h-19.83c-12.34 0-23.43 4.5-31.22 12.67a36.29 36.29 0 0 0 -10.1 27 37.83 37.83 0 0 0 75.62-1.8v-159.74a17.42 17.42 0 0 1 11-16.26l28.72-11.43a17.5 17.5 0 0 1 24 16.25v40.5a17.5 17.5 0 0 1 -22.2 16.85l-26.5-7.39v121.17a52.89 52.89 0 0 1 -52.85 52.83zm52.83-189.57 30.53 8.52a2.42 2.42 0 0 0 2.18-.41 2.45 2.45 0 0 0 1-2v-40.5a2.5 2.5 0 0 0 -3.42-2.32l-28.7 11.44a2.48 2.48 0 0 0 -1.58 2.32z" fill="url(#a)"/></svg>