<svg width="14" height="24" viewBox="0 0 14 24" fill="none" xmlns="http://www.w3.org/2000/svg">
<path d="M3.91 22.58C3.55 23.02 3.02 23.24 2.32 23.24C1.62 23.24 1.08 23.02 0.7 22.58C0.34 22.14 0.16 21.59 0.16 20.93V2.48C0.16 1.82 0.34 1.27 0.7 0.829999C1.08 0.389999 1.62 0.169999 2.32 0.169999C3.02 0.169999 3.55 0.389999 3.91 0.829999C4.27 1.27 4.45 1.82 4.45 2.48V20.93C4.45 21.59 4.27 22.14 3.91 22.58ZM12.5233 22.58C12.1633 23.02 11.6333 23.24 10.9333 23.24C10.2333 23.24 9.69328 23.02 9.31328 22.58C8.95328 22.14 8.77328 21.59 8.77328 20.93V2.48C8.77328 1.82 8.95328 1.27 9.31328 0.829999C9.69328 0.389999 10.2333 0.169999 10.9333 0.169999C11.6333 0.169999 12.1633 0.389999 12.5233 0.829999C12.8833 1.27 13.0633 1.82 13.0633 2.48V20.93C13.0633 21.59 12.8833 22.14 12.5233 22.58Z" fill="#040303"/>
</svg>
