<svg width="19" height="19" viewBox="0 0 19 19" fill="none" xmlns="http://www.w3.org/2000/svg">
<path d="M15.2911 2.63125C14.4517 2.89177 13.6969 3.13927 13.6123 3.18486C13.5277 3.23045 13.4041 3.36071 13.339 3.47143C13.2154 3.67333 13.2089 3.84267 13.2089 8.38223C13.2089 12.1077 13.1894 13.0911 13.1243 13.0911C13.0853 13.0911 12.838 13.0455 12.5907 12.9934C10.8274 12.6222 8.88184 13.4298 8.42636 14.7194C7.74965 16.6342 10.3133 18.2885 12.9161 17.6177C13.8205 17.3832 14.6339 16.784 14.9397 16.1262L15.0959 15.794V11.2545C15.0959 8.19335 15.1154 6.70188 15.1609 6.67583C15.2 6.64977 15.7205 6.49346 16.3257 6.31761C17.5359 5.97242 17.5945 5.94637 17.8287 5.69888C17.9914 5.52954 17.9914 5.51651 18.0109 4.14227L18.0305 2.755L17.8548 2.54658C17.627 2.27304 17.3733 2.14929 17.0674 2.1558C16.9308 2.16231 16.1305 2.37073 15.2911 2.63125Z" fill="black"/>
<path d="M3.02567 4.19438C2.6743 4.35069 2.51814 4.58516 2.49211 5.00199C2.45958 5.43837 2.60273 5.71842 2.94109 5.9073C3.1428 6.01802 3.41609 6.02454 6.83218 6.02454C10.2483 6.02454 10.5216 6.01802 10.7233 5.9073C11.2048 5.64678 11.361 4.89779 11.0226 4.49398C10.6777 4.09017 10.8339 4.1032 6.8517 4.1032C3.96917 4.10971 3.18184 4.12925 3.02567 4.19438Z" fill="black"/>
<path d="M3.02568 8.10217C2.67431 8.25197 2.4726 8.55808 2.4726 8.93584C2.4726 9.32662 2.62876 9.61319 2.94109 9.80207C3.14931 9.92581 3.27294 9.93233 6.83218 9.93233C10.8729 9.93233 10.7298 9.94535 11.0551 9.53503C11.2633 9.268 11.2503 8.67532 11.0226 8.40177C10.6777 7.99797 10.8339 8.01099 6.8517 8.01099C3.98218 8.01751 3.18184 8.03704 3.02568 8.10217Z" fill="black"/>
<path d="M2.9541 12.0425C2.60924 12.2509 2.4726 12.4854 2.4726 12.8501C2.4726 13.2344 2.62876 13.521 2.94109 13.7099C3.1428 13.8336 3.27294 13.8401 4.88013 13.8401C6.76712 13.8401 6.85171 13.8271 7.15102 13.4428C7.34623 13.1953 7.33972 12.6222 7.14451 12.3356C6.86472 11.9253 6.83218 11.9188 4.89965 11.9188C3.30547 11.9188 3.13629 11.9318 2.9541 12.0425Z" fill="black"/>
</svg>
