<svg viewBox="0 0 512 512.87" xmlns="http://www.w3.org/2000/svg"><path d="m480 256.87a32 32 0 0 0 -32 32 96.1 96.1 0 0 1 -96 96h-160v-40a24 24 0 0 0 -40.1-17.8l-80 72a24 24 0 0 0 0 35.64l80 72a23.89 23.89 0 0 0 16.1 6.16 24.37 24.37 0 0 0 9.76-2.06 24 24 0 0 0 14.24-21.94v-40h160c88.22 0 160-71.78 160-160a32 32 0 0 0 -32-32zm-320-128h159.1l.9 40a23.37 23.37 0 0 0 39.17 17.84l80-72c5.93-4.54 8.83-11 8.83-18.74a22.66 22.66 0 0 0 -7.94-17.84l-80-72a24.23 24.23 0 0 0 -25.83-4.13c-8.63 4.81-15.13 13.4-15.13 22.87l.9 40h-160c-88.22 0-160 71.8-160 160a32 32 0 0 0 64 0 96.15 96.15 0 0 1 96-96z"/><text font-family="MohrRounded-Black" font-size="150" font-weight="800" transform="translate(222.98 291.98)">1</text></svg>