<svg width="19" height="19" viewBox="0 0 19 19" fill="none" xmlns="http://www.w3.org/2000/svg">
<g clip-path="url(#clip0_18_49)">
<path d="M18.5658 16.4654L14.1238 12.0234C15.1339 10.5238 15.6323 8.65017 15.3655 6.65369C14.9105 3.25782 12.1273 0.494284 8.72811 0.0639266C3.67419 -0.575579 -0.575579 3.67418 0.0639642 8.7281C0.494433 12.1288 3.25834 14.9142 6.65459 15.367C8.65107 15.6337 10.5251 15.1355 12.0243 14.1253L16.4663 18.5673C17.046 19.1469 17.9859 19.1469 18.5656 18.5673C19.1447 17.9869 19.1447 17.0443 18.5658 16.4654ZM2.93534 7.71873C2.93534 5.09955 5.06616 2.96873 7.68534 2.96873C10.3045 2.96873 12.4353 5.09955 12.4353 7.71873C12.4353 10.3379 10.3045 12.4687 7.68534 12.4687C5.06616 12.4687 2.93534 10.3386 2.93534 7.71873Z" fill="black"/>
</g>
<defs>
<clipPath id="clip0_18_49">
<rect width="19" height="19" fill="black"/>
</clipPath>
</defs>
</svg>
