<svg width="18" height="19" viewBox="0 0 18 19" fill="none" xmlns="http://www.w3.org/2000/svg">
<path d="M12.7675 3.13948C12.0209 3.29995 11.1977 3.87204 10.7861 4.52088C10.507 4.96739 10.3256 5.58832 10.3256 6.11855V6.59297L8.79769 7.36041L7.26978 8.12088L6.89304 7.86274C5.39304 6.83018 3.36281 7.2139 2.41397 8.70693C1.56978 10.0465 1.90467 11.9581 3.1535 12.879C3.78839 13.3395 4.2349 13.493 5.02327 13.493C5.81164 13.4999 6.22327 13.3744 6.8442 12.9558L7.27676 12.6767L8.79769 13.4372L10.3256 14.1976V14.672C10.3256 15.9069 11.1279 17.0441 12.3349 17.5186C12.6419 17.6441 12.8791 17.679 13.3954 17.679C14.1698 17.686 14.5675 17.5744 15.2023 17.1627C16.9814 16.0116 16.9814 13.1511 15.2023 11.9999C14.5884 11.6023 14.1698 11.4837 13.4302 11.4837C12.6837 11.4837 12.2512 11.6093 11.6442 12.0209L11.2116 12.2999L9.69071 11.5395L8.16281 10.779V10.3953V10.0116L9.69071 9.24413L11.2186 8.48367L11.5954 8.74181C12.1396 9.11855 12.6837 9.28599 13.3605 9.28599C13.6744 9.29297 14.0651 9.25111 14.2396 9.20925C15.0977 8.97902 15.8861 8.30925 16.2768 7.486C16.5768 6.84413 16.6256 5.97204 16.4023 5.24646C16.1302 4.34646 15.4396 3.62786 14.5116 3.27204C14.0861 3.11158 13.2209 3.04879 12.7675 3.13948ZM14.0023 5.30925C14.7628 5.78367 14.5744 6.99065 13.7023 7.186C12.7256 7.40925 12.0349 6.39065 12.5861 5.54646C12.8302 5.16972 13.5698 5.04413 14.0023 5.30925ZM5.56746 9.48832C6.0349 9.77437 6.19536 10.3534 5.95815 10.8627C5.65815 11.4767 4.75815 11.5883 4.27676 11.0651C3.99071 10.7511 3.92095 10.4162 4.08141 10.0046C4.30467 9.41158 5.02327 9.16041 5.56746 9.48832ZM13.9535 13.6674C14.6442 14.0302 14.6442 15.1325 13.9535 15.4953C13.4651 15.7604 12.8233 15.6069 12.5512 15.1604C12.3628 14.8534 12.3558 14.3302 12.5302 14.0232C12.7954 13.5767 13.4721 13.4023 13.9535 13.6674Z" fill="black"/>
</svg>
