<svg width="15" height="15" viewBox="0 0 15 15" fill="none" xmlns="http://www.w3.org/2000/svg">
<path d="M8.8669 1.56145C8.60581 1.67408 8.54949 1.87374 8.54949 2.71333V3.43005H6.58362C4.24915 3.43005 4.00854 3.46077 3.15871 3.89592C1.86349 4.55633 0.921509 6.05633 0.921509 7.4693C0.921509 7.8379 0.982942 7.99149 1.17748 8.10412C1.58192 8.34473 2.04779 8.0478 2.04779 7.55121C2.04779 7.43859 2.08362 7.18261 2.12458 6.98807C2.36519 5.84132 3.33277 4.87374 4.47953 4.63313C4.75598 4.57681 5.26281 4.55633 6.69625 4.55633H8.54949V5.29353C8.54949 5.9693 8.55973 6.04098 8.66724 6.19968C8.82083 6.43005 9.1024 6.52732 9.33277 6.43005C9.53243 6.34302 11.5444 4.32084 11.5956 4.15702C11.6877 3.85497 11.6109 3.74746 10.4539 2.59558C9.24574 1.39251 9.25086 1.39763 8.8669 1.56145Z" fill="#C4C4C4" fill-opacity="0.7"/>
<path d="M12.3379 7.13141C12.169 7.21332 12.0307 7.50001 12.0307 7.75599C12.0256 8.45735 11.6877 9.19967 11.1092 9.77817C10.669 10.2236 10.2696 10.4539 9.69626 10.5973C9.3379 10.6894 9.128 10.6997 7.38739 10.6997H5.47783V9.90104V9.1024L5.31913 8.95394C5.19114 8.83619 5.11435 8.80547 4.92493 8.80547H4.68943L3.57339 9.92151C2.51367 10.9812 2.45735 11.0427 2.45735 11.227C2.45735 11.3345 2.48807 11.4829 2.52902 11.5597C2.64677 11.7748 4.56657 13.6587 4.73551 13.7201C4.94541 13.7969 5.1809 13.7457 5.32937 13.587C5.44711 13.4642 5.45223 13.413 5.47783 12.6553L5.50343 11.8515L7.628 11.826C10.0188 11.7901 10.0188 11.7901 10.8277 11.3959C11.8771 10.8789 12.7321 9.84472 13.029 8.72868C13.1468 8.29353 13.1877 7.57169 13.1058 7.37203C12.9932 7.1007 12.6246 6.98807 12.3379 7.13141Z" fill="#C4C4C4" fill-opacity="0.7"/>
</svg>
