<svg viewBox="0 0 137.2 138.74" xmlns="http://www.w3.org/2000/svg"><path d="m45.28 8.84s-15.11 13.09-15.73 34.68 11.11 30.86.22 40.13-35.11 19.35-20.43 44.35h59.84v-114.69z" fill="#3f2037"/><path d="m92.5 8.84s15.11 13.09 15.74 34.68-11.12 30.86-.24 40.13 35.13 19.35 20.44 44.35h-59.84v-114.69z" fill="#3f2037"/><path d="m137.2 138.74h-137.2s1.38-17.12 9.66-20.43c1.71-.69 4.56-2 8-3.71l1.46-.72c7.17-3.55 16.39-8.33 23.35-12 5.94-3.11 10.24-5.39 10.24-5.39l1.05.23a65.28 65.28 0 0 0 29.59-.23l8.65 4.44c3 1.54 6.61 3.36 10.33 5.23 10 5 21.05 10.49 25.19 12.15 8.3 3.31 9.68 20.43 9.68 20.43z" fill="#ff4f4e"/><path d="m31.14 138.74h-3.66c-2.84-6.25-7.58-17-9.81-24.14l1.46-.72c1.65 4.2 7.04 17.53 12.01 24.86z" fill="#c42c31"/><path d="m103.57 138.74h3.66c2.84-6.25 8-18 10.28-25.06l-1.33-.64c-1.64 4.2-7.64 18.37-12.61 25.7z" fill="#c42c31"/><path d="m61.4 138.74h-30c-5.05-7.51-9.73-18.4-12.3-24.87-1.3-3.28-2.07-5.42-2.07-5.42 7.73-6.12 25.42-6.56 25.42-6.56 6.34 8.44 14.46 26.39 18.95 36.85z" fill="#ff4f4e"/><path d="m73.59 138.74h30c5-7.51 9.72-18.4 12.29-24.87 1.31-3.28 2.07-5.42 2.07-5.42-7.73-6.12-25.9-7.52-25.9-7.52-6.32 8.44-13.97 27.35-18.46 37.81z" fill="#ff4f4e"/><path d="m92 100.93a122.75 122.75 0 0 1 -2.59 14.81c-2.26 9.29-6.16 19.48-12.73 23h-10.8c-9-3.75-15.22-14.53-19-23.71a102.38 102.38 0 0 1 -4.39-13.14c5.94-3.11 10.24-5.39 10.24-5.39l1.05.23a65.28 65.28 0 0 0 29.59-.23z" fill="#ffb8a1"/><path d="m89.43 115.74c-2.26 9.29-6.16 19.48-12.73 23h-10.82c-9-3.75-15.22-14.53-19-23.71 4.74 2 11.81 3.74 21.81 3.74a66.72 66.72 0 0 0 20.74-3.03z" fill="#fff7f1"/><path d="m84.07 100s-2.69 8.46-15.06 8.46c-14.42 0-17.81-7.69-17.81-7.69a63 63 0 0 0 2.69-9.14 50.09 50.09 0 0 0 1.16-11.43l25.33-1c.24 2.15.62 4.68 1.05 7.22 1.15 6.73 2.64 13.58 2.64 13.58z" fill="#ffb8a1"/><path d="m69.18 112.36a19.87 19.87 0 0 1 -15.33-7.13 24.45 24.45 0 0 1 -4.33-7.11.5.5 0 0 1 .94-.34 23.84 23.84 0 0 0 4.17 6.82 18.59 18.59 0 0 0 14.55 6.76 16.27 16.27 0 0 0 13.7-6.72 20.39 20.39 0 0 0 3.35-6.81.52.52 0 0 1 .61-.37.51.51 0 0 1 .37.6 21.47 21.47 0 0 1 -3.5 7.15 17.46 17.46 0 0 1 -14.53 7.15z" fill="#fff7f1"/><path d="m81.43 86.41c-3.93 2.73-12.51 6.79-27.53 5.21a50.09 50.09 0 0 0 1.15-11.42l25.33-1c.24 2.14.62 4.67 1.05 7.21z" fill="#3f2037"/><path d="m45.38 47.16s-7.84-10.67-13.94-4.36 5.66 28.32 16.33 23.52z" fill="#ffb8a1"/><path d="m42.12 59.77a.54.54 0 0 1 -.53-.47c-1-7.41-6.93-12-7-12a.54.54 0 1 1 .66-.86 20.87 20.87 0 0 1 7.4 12.72.54.54 0 0 1 -.46.61z" fill="#ff8a8a"/><path d="m40.48 54.44a.55.55 0 0 1 -.45-.23c-.79-1.17-3.14-1.29-4-1.23a.54.54 0 0 1 -.57-.51.55.55 0 0 1 .5-.58c.15 0 3.66-.2 5 1.71a.54.54 0 0 1 -.15.75.55.55 0 0 1 -.33.09z" fill="#ff8a8a"/><path d="m42.93 66.81a2.85 2.85 0 0 1 -.46-.12 2.27 2.27 0 0 1 -2.14-.16c-1.81-1.27-.24-4.34-.22-4.38a.57.57 0 0 0 -1-.53c-.08.16-2.07 4 .57 5.85a3.25 3.25 0 0 0 1.87.57 3.56 3.56 0 0 0 1.91-.55 3 3 0 0 0 .61-.5c-.4-.06-.76-.13-1.14-.18z" fill="#fff7f1"/><path d="m93.14 47.16s7.86-10.67 13.94-4.36-5.66 28.32-16.33 23.52z" fill="#ffb8a1"/><path d="m96.3 59.77h-.08a.54.54 0 0 1 -.46-.61 20.82 20.82 0 0 1 7.4-12.72.54.54 0 0 1 .76.1.55.55 0 0 1 -.1.76c-.06.05-6 4.61-7 12a.54.54 0 0 1 -.52.47z" fill="#ff8a8a"/><path d="m97.94 54.44a.53.53 0 0 1 -.3-.09.54.54 0 0 1 -.15-.75c1.29-1.91 4.8-1.72 4.94-1.71a.55.55 0 0 1 -.06 1.09c-.84-.06-3.2.07-4 1.23a.56.56 0 0 1 -.43.23z" fill="#ff8a8a"/><path d="m95.59 66.81a2.6 2.6 0 0 0 .46-.12 2.27 2.27 0 0 0 2.14-.16c1.81-1.27.24-4.34.22-4.38a.57.57 0 0 1 1-.53c.08.16 2.07 4-.57 5.85a3.25 3.25 0 0 1 -1.84.53 3.56 3.56 0 0 1 -1.91-.55 3 3 0 0 1 -.61-.5c.37-.02.73-.09 1.11-.14z" fill="#fff7f1"/><path d="m72.79 15.16c-23.17-.67-34 11.72-32.25 37.32 1.1 15.89 9.65 35.23 28.46 35.67 19.62.46 28.55-21.8 29-38.24.45-17.29-3.65-28.85-18-33.54a62.31 62.31 0 0 0 -7.21-1.21z" fill="#ffb8a1"/><g fill="#ff8a8a"><path d="m52.37 57.44a.67.67 0 0 1 -.67.68.68.68 0 1 1 0-1.35.67.67 0 0 1 .67.67z"/><path d="m55.67 59.07a.68.68 0 1 1 -.67-.67.67.67 0 0 1 .67.67z"/><path d="m52.37 61.42a.67.67 0 0 1 -.67.67.68.68 0 0 1 -.68-.67.69.69 0 0 1 .68-.68.68.68 0 0 1 .67.68z"/><path d="m57.55 62.09a.67.67 0 0 1 -.67.68.68.68 0 1 1 0-1.35.67.67 0 0 1 .67.67z"/><path d="m61 61.42a.68.68 0 0 1 -.68.67.67.67 0 0 1 -.67-.67.68.68 0 0 1 .67-.68.69.69 0 0 1 .68.68z"/><path d="m59.44 58.12a.68.68 0 0 1 -.68.67.67.67 0 0 1 -.67-.67.68.68 0 0 1 .67-.68.69.69 0 0 1 .68.68z"/><path d="m86.72 57.44a.68.68 0 1 0 .68-.67.67.67 0 0 0 -.68.67z"/><path d="m83.43 59.07a.67.67 0 0 0 .67.68.68.68 0 1 0 0-1.35.67.67 0 0 0 -.67.67z"/><path d="m86.72 61.42a.68.68 0 1 0 .68-.68.68.68 0 0 0 -.68.68z"/><path d="m81.54 62.09a.68.68 0 1 0 .68-.67.67.67 0 0 0 -.68.67z"/><path d="m78.09 61.42a.68.68 0 0 0 1.35 0 .68.68 0 1 0 -1.35 0z"/><path d="m79.66 58.12a.68.68 0 0 0 1.35 0 .68.68 0 1 0 -1.35 0z"/></g><path d="m41.46 57s4.64-9.79 3.09-17l-5.06-1.47s-.78 12.4 1.97 18.47z" fill="#3f2037"/><path d="m97 57s-4.64-9.79-3.1-17l5.1-1.45s.75 12.38-2 18.45z" fill="#3f2037"/><path d="m45.28 8.84c-5.61 5.55-9.99 14.64-10.28 20.16s1.15 11.21 5.36 13.35c13.18 6.71 40.44-18.5 40.44-18.5s9.61 19.58 17.2 18.65 10.8-23-7.23-35.29-36.87-6.88-45.49 1.63z" fill="#3f2037"/><path d="m50 45.35a13.8 13.8 0 0 1 5.5-5.76c5.39-3.35 9.26 2.41 9.26 2.41s-4.21-1.47-7.45-.44a36.82 36.82 0 0 0 -7.31 3.79z" fill="#3f2037"/><path d="m89.6 45.35a13.88 13.88 0 0 0 -5.51-5.76c-5.37-3.35-9.24 2.41-9.24 2.41s4.21-1.47 7.45-.44a37 37 0 0 1 7.3 3.79z" fill="#3f2037"/><path d="m70.58 65.94a7.71 7.71 0 0 1 -3.07-.73.75.75 0 0 1 -.45-.79l1.57-12a.75.75 0 1 1 1.49.19l-1.5 11.39a3.92 3.92 0 0 0 3.75-.14.75.75 0 1 1 .84 1.24 4.61 4.61 0 0 1 -2.63.84z" fill="#ff8a8a"/><path d="m69.09 73.9a15.22 15.22 0 0 1 -1.85-.11 17 17 0 0 1 -5.93-1.79.75.75 0 0 1 .69-1.29c.36.2 8.94 4.84 16.37-2a.75.75 0 1 1 1 1.1 14.85 14.85 0 0 1 -10.28 4.09z" fill="#ff8a8a"/><path d="m70.4 78.3a11.72 11.72 0 0 1 -3.24-.46.75.75 0 0 1 -.5-.94.76.76 0 0 1 .94-.49c.05 0 3.48 1 5.89-.32a.75.75 0 1 1 .74 1.31 7.83 7.83 0 0 1 -3.83.9z" fill="#ff8a8a"/><path d="m60.28 49.88c0 2.1-.73 3.81-1.72 3.82s-1.82-1.7-1.86-3.76.74-3.8 1.73-3.82 1.82 1.67 1.85 3.76z" fill="#3f2037"/><path d="m79 49.88c0 2.1.74 3.81 1.72 3.82s1.82-1.66 1.86-3.76-.73-3.8-1.72-3.82-1.86 1.67-1.86 3.76z" fill="#3f2037"/></svg>