<svg viewBox="0 0 145.27 147.26" xmlns="http://www.w3.org/2000/svg"><path d="m41.11 128.42s-24 4.81-25-15.37c-.44-8.73-1.62-7.37-9.26-14.73s-7.61-10.32-5.98-17.19 8.52-9.13 5.13-15.46c-4.48-8.3-3.11-22.49 6.62-28 9.38-5.37 10.46-5.3 10.46-10.78 0-7.16 7.43-18.7 22.77-17.5 13.2 1.03 11.15-5.39 20.5-8.25 17.42-5.33 25.86 9.76 31.86 10.3s16.39.65 21.66 8.63c6.53 9.89.76 18 8.94 18.78s16.37 7.91 16.1 15.28-4.64 13.63-1.64 16.87 4.16 22.66-8 26.37c-16.54 5.07 0 29.57-30.43 29.11-27.3-.36-63.73 1.94-63.73 1.94z" fill="#3f2037"/><path d="m139.54 147.26h-137.2s1.38-17.12 9.66-20.43c1.71-.68 4.56-2 8-3.71l1.47-.72 2.73-1.4c6.67-3.35 14.52-7.42 20.63-10.62l2.06-1.08c4.85-2.55 8.17-4.32 8.17-4.32l1 .24a65.46 65.46 0 0 0 29.6-.24s3.45 1.78 8.46 4.33l.19.1c3 1.54 6.6 3.36 10.33 5.23 10 5 21 10.5 25.19 12.15 8.33 3.35 9.71 20.47 9.71 20.47z" fill="#0075cf"/><path d="m72.29 138.12a34.92 34.92 0 0 1 -8.72-1.1 30.08 30.08 0 0 1 -9.57-4.18.75.75 0 0 1 .88-1.21 29.34 29.34 0 0 0 9.13 4 34.61 34.61 0 0 0 22.86-2.12.75.75 0 0 1 .6 1.38 37.43 37.43 0 0 1 -15.18 3.23z" fill="#0056a8"/><path d="m94.17 109.35c-1.62 7-6.84 20.18-23.23 20.18-17.46 0-22.62-14-24-20.19 4.85-2.55 8.17-4.32 8.17-4.32l1 .24a65.46 65.46 0 0 0 29.6-.24s3.45 1.78 8.46 4.33z" fill="#ffb8a1"/><path d="m29.92 147.26h-27.58s1.38-17.12 9.66-20.43c1.71-.68 4.56-2 8-3.71l1.47-.72 2.73-1.4c2.06 5.79 5.48 16.68 5.72 26.26z" fill="#ffb8a1"/><path d="m112 147.26h27.58s-1.38-17.12-9.66-20.43c-1.72-.68-4.57-2-8-3.71l-1.46-.72-2.78-1.4c-2.06 5.79-5.48 16.68-5.68 26.26z" fill="#ffb8a1"/><path d="m86.4 108.52s-2.69 8.48-15.05 8.48c-14.42 0-17.82-7.68-17.82-7.68a62 62 0 0 0 2.7-9.15 49.61 49.61 0 0 0 1.16-11.42l25.33-1c.24 2.14.62 4.67 1 7.21 1.19 6.72 2.68 13.56 2.68 13.56z" fill="#ffb8a1"/><path d="m83.77 94.93c-3.93 2.73-12.51 6.79-27.54 5.21a49.61 49.61 0 0 0 1.16-11.42l25.33-1c.28 2.14.62 4.67 1.05 7.21z" fill="#3f2037"/><path d="m97.31 57.12s5.94-8.08 10.56-3.29-4.29 21.43-12.37 17.8z" fill="#ffb8a1"/><path d="m94.86 71.47a11.35 11.35 0 1 0 5.25-1.13 5.52 5.52 0 0 1 .28-1.28 12.62 12.62 0 1 1 -5.34.91z" fill="#fff7f1"/><path d="m99.7 66.67a.41.41 0 0 1 -.35-.47 15.76 15.76 0 0 1 5.6-9.63.41.41 0 0 1 .49.65 15.3 15.3 0 0 0 -5.28 9.1.42.42 0 0 1 -.46.35z" fill="#ff8a8a"/><path d="m100.94 62.64a.38.38 0 0 1 -.22-.07.41.41 0 0 1 -.11-.57c1-1.45 3.62-1.3 3.74-1.29a.41.41 0 0 1 0 .82c-.64 0-2.42 0-3 .93a.4.4 0 0 1 -.41.18z" fill="#ff8a8a"/><path d="m45.84 57.12s-5.94-8.12-10.56-3.29 4.29 21.43 12.37 17.8z" fill="#ffb8a1"/><path d="m47.44 70a12.66 12.66 0 1 1 -5.34-.91 5.52 5.52 0 0 1 .28 1.28 11.34 11.34 0 1 0 5.25 1.13z" fill="#fff7f1"/><path d="m47.44 70a12.66 12.66 0 1 1 -5.34-.91 5.52 5.52 0 0 1 .28 1.28 11.34 11.34 0 1 0 5.25 1.13z" fill="#fff7f1"/><path d="m43.45 66.67h.06a.41.41 0 0 0 .34-.47 15.76 15.76 0 0 0 -5.6-9.63.41.41 0 0 0 -.49.65 15.3 15.3 0 0 1 5.24 9.1.42.42 0 0 0 .45.35z" fill="#ff8a8a"/><path d="m42.21 62.64a.38.38 0 0 0 .22-.07.41.41 0 0 0 .11-.57c-1-1.45-3.62-1.3-3.74-1.29a.41.41 0 0 0 .05.82c.64 0 2.42 0 3 .93a.4.4 0 0 0 .36.18z" fill="#ff8a8a"/><path d="m100.32 58.44c-.43 16.44-9.35 38.69-29 38.23-17.36-.41-26-16.88-28.08-31.91-.18-1.27-.31-2.53-.39-3.76-1.68-24.23 8-36.63 28.65-37.31h3.59a60.06 60.06 0 0 1 7.24 1.2c14.34 4.69 18.44 16.26 17.99 33.55z" fill="#ffb8a1"/><path d="m61.56 68.29c0 1.9-3.5 3.44-7.81 3.44s-7.82-1.54-7.82-3.44 3.5-3.43 7.82-3.43 7.81 1.54 7.81 3.43z" fill="#ff8a8a" opacity=".5"/><path d="m98.34 68.29c0 1.9-3.5 3.44-7.81 3.44s-7.82-1.54-7.82-3.44 3.5-3.43 7.82-3.43 7.81 1.54 7.81 3.43z" fill="#ff8a8a" opacity=".5"/><g fill="#3f2037"><path d="m60.09 38.5c-5.09.38-3.56 6.27-8.57 9.15-5.52 3.17-4.82 5.06-3.52 9.49 2 6.59-4.52 8.15-4.52 8.15l-.24-.53c-.18-1.27-.31-2.53-.39-3.76-1.65-24.23 6.15-38.35 28.68-37.31 2.8 10.61-4.64 14.31-11.44 14.81z"/><path d="m82.55 36.76c6.76-.11 4.4 6.89 8.39 10.11 4.94 4 6.56 2.29 4.39 8.81-2.25 6.75 4.2 9.61 4.2 9.61.08-.17.17-.35.25-.53.17-1.27.3-2.53.39-3.76 1.67-24.23-6.52-38.29-28.66-37.31-2.8 10.61 4.21 13.17 11.04 13.07z"/><path d="m64.79 46.88c-2.65.06-8.44.77-11 5.59 0 0 6-2.84 11-2.54a1.53 1.53 0 0 0 1.61-1.72 1.53 1.53 0 0 0 -1.61-1.33z"/><path d="m79.48 46.88c2.65.06 8.44.77 11 5.59 0 0-6-2.84-11-2.54a1.53 1.53 0 0 1 -1.61-1.72 1.53 1.53 0 0 1 1.61-1.33z"/></g><path d="m72.91 74.46a7.79 7.79 0 0 1 -3.07-.73.75.75 0 0 1 -.44-.73l1.6-12.1a.75.75 0 1 1 1.48.2l-1.48 11.47a3.92 3.92 0 0 0 3.75-.15.75.75 0 1 1 .83 1.25 4.58 4.58 0 0 1 -2.67.79z" fill="#ff8a8a"/><path d="m71.43 82.42a18 18 0 0 1 -1.86-.1 17.55 17.55 0 0 1 -5.92-1.77.76.76 0 0 1 -.29-1 .74.74 0 0 1 1-.29c.36.2 8.94 4.83 16.36-2a.75.75 0 0 1 1.06 0 .74.74 0 0 1 0 1.06 14.87 14.87 0 0 1 -10.35 4.1z" fill="#ff8a8a"/><path d="m72.74 86.82a12.13 12.13 0 0 1 -3.25-.45.75.75 0 0 1 .45-1.44s3.47 1 5.89-.32a.75.75 0 0 1 1 .29.74.74 0 0 1 -.28 1 7.74 7.74 0 0 1 -3.81.92z" fill="#ff8a8a"/><path d="m62.62 58.4c0 2.1-.73 3.81-1.72 3.83s-1.82-1.67-1.9-3.76.74-3.81 1.73-3.83 1.86 1.67 1.89 3.76z" fill="#3f2037"/><path d="m81.34 58.4c0 2.1.73 3.81 1.72 3.83s1.82-1.67 1.86-3.76-.74-3.81-1.73-3.83-1.82 1.67-1.85 3.76z" fill="#3f2037"/></svg>