<svg viewBox="0 0 137.2 154.69" xmlns="http://www.w3.org/2000/svg"><path d="m137.2 154.69h-137.2s.12-1.45.48-3.58c.19-1.07.44-2.3.76-3.62a36.87 36.87 0 0 1 2-5.9 21.77 21.77 0 0 1 1.64-3.06 10.74 10.74 0 0 1 4.8-4.27c1.71-.68 4.56-2 8-3.71l1.46-.72c.95-.46 1.92-.95 2.93-1.46l3.54-1.79c5.73-2.91 11.88-6.11 16.88-8.72l2.27-1.2 1.38-.72 6.58-3.48 1.05.24a65.42 65.42 0 0 0 29.59-.24s2.7 1.4 6.8 3.49l1.85.94.83.42c2.84 1.45 6.11 3.11 9.5 4.81 3 1.52 6.09 3.06 9.07 4.54l3.69 1.81c5.41 2.66 10.06 4.85 12.43 5.8a10.69 10.69 0 0 1 4.77 4.23 21 21 0 0 1 1.7 3.1 35.38 35.38 0 0 1 2 5.91c.32 1.29.57 2.51.75 3.56.33 2.16.45 3.62.45 3.62z" fill="#3f2037"/><g fill="#734669"><path d="m49 118.38a2.48 2.48 0 1 1 -4.27-1.73l1.38-.72a2.6 2.6 0 0 1 .4 0 2.48 2.48 0 0 1 2.49 2.45z"/><path d="m60.05 118.38a2.49 2.49 0 1 1 -2.49-2.48 2.49 2.49 0 0 1 2.49 2.48z"/><path d="m71.06 118.38a2.48 2.48 0 1 1 -2.48-2.48 2.48 2.48 0 0 1 2.48 2.48z"/><path d="m82.08 118.38a2.48 2.48 0 1 1 -2.48-2.48 2.48 2.48 0 0 1 2.48 2.48z"/><path d="m93.1 118.38a2.49 2.49 0 1 1 -2.93-2.44l1.85.94.83.42a2.45 2.45 0 0 1 .25 1.08z"/><path d="m27 128.8a2.49 2.49 0 0 1 -5 0 3.13 3.13 0 0 1 0-.44l3.54-1.79a2.49 2.49 0 0 1 1.46 2.23z"/><path d="m38 128.8a2.48 2.48 0 1 1 -2.48-2.48 2.48 2.48 0 0 1 2.48 2.48z"/><path d="m49 128.8a2.48 2.48 0 1 1 -2.48-2.48 2.48 2.48 0 0 1 2.48 2.48z"/><path d="m60.05 128.8a2.49 2.49 0 1 1 -2.49-2.48 2.49 2.49 0 0 1 2.49 2.48z"/><path d="m71.06 128.8a2.48 2.48 0 1 1 -2.48-2.48 2.48 2.48 0 0 1 2.48 2.48z"/><path d="m82.08 128.8a2.48 2.48 0 1 1 -2.48-2.48 2.48 2.48 0 0 1 2.48 2.48z"/><path d="m93.1 128.8a2.48 2.48 0 1 1 -2.48-2.48 2.48 2.48 0 0 1 2.48 2.48z"/><path d="m104.11 128.8a2.48 2.48 0 1 1 -2.48-2.48 2.48 2.48 0 0 1 2.48 2.48z"/><path d="m115.13 128.8a2.48 2.48 0 1 1 -3.71-2.15l3.69 1.81c.01.11.02.22.02.34z"/><path d="m5 139.22a2.49 2.49 0 0 1 -1.74 2.37 21.77 21.77 0 0 1 1.64-3.06 2.26 2.26 0 0 1 .1.69z"/><path d="m16 139.22a2.48 2.48 0 1 1 -2.48-2.48 2.48 2.48 0 0 1 2.48 2.48z"/><path d="m27 139.22a2.48 2.48 0 1 1 -2.48-2.48 2.48 2.48 0 0 1 2.48 2.48z"/><path d="m38 139.22a2.48 2.48 0 1 1 -2.48-2.48 2.48 2.48 0 0 1 2.48 2.48z"/><path d="m49 139.22a2.48 2.48 0 1 1 -2.48-2.48 2.48 2.48 0 0 1 2.48 2.48z"/><path d="m60.05 139.22a2.49 2.49 0 1 1 -2.49-2.48 2.49 2.49 0 0 1 2.49 2.48z"/><path d="m71.06 139.22a2.48 2.48 0 1 1 -2.48-2.48 2.48 2.48 0 0 1 2.48 2.48z"/><path d="m82.08 139.22a2.48 2.48 0 1 1 -2.48-2.48 2.48 2.48 0 0 1 2.48 2.48z"/><path d="m93.1 139.22a2.48 2.48 0 1 1 -2.48-2.48 2.48 2.48 0 0 1 2.48 2.48z"/><path d="m104.11 139.22a2.48 2.48 0 1 1 -2.48-2.48 2.48 2.48 0 0 1 2.48 2.48z"/><path d="m115.13 139.22a2.48 2.48 0 1 1 -2.48-2.48 2.48 2.48 0 0 1 2.48 2.48z"/><path d="m126.15 139.22a2.48 2.48 0 1 1 -2.48-2.48 2.48 2.48 0 0 1 2.48 2.48z"/><path d="m134 141.6a2.48 2.48 0 0 1 -1.67-3.11 21 21 0 0 1 1.67 3.11z"/><path d="m5 149.64a2.48 2.48 0 0 1 -4.48 1.47c.19-1.07.44-2.3.76-3.62a2.48 2.48 0 0 1 3.72 2.15z"/><path d="m16 149.64a2.48 2.48 0 1 1 -2.48-2.48 2.48 2.48 0 0 1 2.48 2.48z"/><path d="m27 149.64a2.48 2.48 0 1 1 -2.48-2.48 2.48 2.48 0 0 1 2.48 2.48z"/><path d="m38 149.64a2.48 2.48 0 1 1 -2.48-2.48 2.48 2.48 0 0 1 2.48 2.48z"/><path d="m49 149.64a2.48 2.48 0 1 1 -2.48-2.48 2.48 2.48 0 0 1 2.48 2.48z"/><path d="m60.05 149.64a2.49 2.49 0 1 1 -2.49-2.48 2.49 2.49 0 0 1 2.49 2.48z"/><path d="m71.06 149.64a2.48 2.48 0 1 1 -2.48-2.48 2.48 2.48 0 0 1 2.48 2.48z"/><path d="m82.08 149.64a2.48 2.48 0 1 1 -2.48-2.48 2.48 2.48 0 0 1 2.48 2.48z"/><path d="m93.1 149.64a2.48 2.48 0 1 1 -2.48-2.48 2.48 2.48 0 0 1 2.48 2.48z"/><path d="m104.11 149.64a2.48 2.48 0 1 1 -2.48-2.48 2.48 2.48 0 0 1 2.48 2.48z"/><path d="m115.13 149.64a2.48 2.48 0 1 1 -2.48-2.48 2.48 2.48 0 0 1 2.48 2.48z"/><path d="m126.15 149.64a2.48 2.48 0 1 1 -2.48-2.48 2.48 2.48 0 0 1 2.48 2.48z"/><path d="m136.71 151.07a2.48 2.48 0 1 1 -.75-3.56c.32 1.29.57 2.49.75 3.56z"/></g><path d="m89.84 115.77q-3.7 8.51-7.43 17-4.8 11-9.65 21.91h-5.54c-4.22-7.28-8.55-14.5-12.81-21.76-1.72-2.93-3.44-5.87-5.13-8.82-1.44-2.52-2.83-5.06-4.15-7.65 4.53-2.38 7.6-4 7.6-4l1.05.24a65.42 65.42 0 0 0 29.59-.24z" fill="#ffb8a1"/><path d="m82.41 132.78q-4.8 11-9.65 21.91h-5.54c-4.22-7.28-8.55-14.5-12.81-21.76a51 51 0 0 0 28-.15z" fill="#fff7f1"/><path d="m84.07 116s-2.69 8.4-15.07 8.4c-14.42 0-17.81-7.69-17.81-7.69a62.68 62.68 0 0 0 2.69-9.14 50 50 0 0 0 1.15-11.42l25.33-1c.24 2.14.62 4.67 1.05 7.21 1.17 6.75 2.66 13.64 2.66 13.64z" fill="#ffb8a1"/><path d="m69.18 128.31a19.89 19.89 0 0 1 -15.33-7.12 24.43 24.43 0 0 1 -4.33-7.12.5.5 0 1 1 .94-.34 24 24 0 0 0 4.17 6.83 18.62 18.62 0 0 0 14.55 6.75c13.73 0 17-13.39 17-13.52a.51.51 0 0 1 .6-.38.52.52 0 0 1 .38.61 21.47 21.47 0 0 1 -3.5 7.14 17.46 17.46 0 0 1 -14.48 7.15z" fill="#fff7f1"/><path d="m81.43 102.36c-3.93 2.73-12.51 6.79-27.53 5.21a50 50 0 0 0 1.15-11.42l25.33-1c.24 2.14.62 4.67 1.05 7.21z" fill="#3f2037"/><path d="m45.38 63.11s-7.84-10.67-13.94-4.36 5.66 28.32 16.33 23.53z" fill="#ffb8a1"/><circle cx="38.77" cy="76.7" fill="#fff7f1" r="2.18"/><path d="m42.12 75.72a.53.53 0 0 1 -.53-.47c-1-7.41-6.93-12-7-12a.54.54 0 0 1 -.1-.76.55.55 0 0 1 .76-.1 20.91 20.91 0 0 1 7.4 12.73.55.55 0 0 1 -.46.61z" fill="#ff8a8a"/><path d="m40.48 70.4a.56.56 0 0 1 -.45-.24c-.79-1.17-3.14-1.28-4-1.23a.54.54 0 0 1 -.03-1.08c.15 0 3.66-.21 5 1.7a.53.53 0 0 1 -.15.75.49.49 0 0 1 -.37.1z" fill="#ff8a8a"/><path d="m93.14 63.11s7.84-10.67 13.94-4.36-5.66 28.32-16.33 23.53z" fill="#ffb8a1"/><circle cx="99.15" cy="76.7" fill="#fff7f1" r="2.18"/><path d="m96.3 75.72h-.08a.55.55 0 0 1 -.46-.61 20.86 20.86 0 0 1 7.4-12.73.54.54 0 1 1 .66.86c-.06 0-6 4.62-7 12a.53.53 0 0 1 -.52.48z" fill="#ff8a8a"/><path d="m97.94 70.4a.47.47 0 0 1 -.3-.1.53.53 0 0 1 -.15-.75c1.29-1.91 4.79-1.71 4.94-1.7a.54.54 0 0 1 .51.57.54.54 0 0 1 -.57.51c-.85-.05-3.2.07-4 1.23a.57.57 0 0 1 -.43.24z" fill="#ff8a8a"/><path d="m72.79 31.12c-23.17-.68-34 11.72-32.25 37.31 1.09 15.89 9.65 35.23 28.46 35.67 19.62.46 28.55-21.79 29-38.23.43-17.29-3.67-28.87-18-33.55a60.23 60.23 0 0 0 -7.21-1.2z" fill="#ffb8a1"/><path d="m87.48 22.8c-.13.33-.27.66-.43 1a29.33 29.33 0 0 1 -7.55 9.37h-18.09s-6.49-3.58-9.87-9.39c-.18-.31-.35-.63-.51-1-2.36-4.7-2.52-10.72 4-17.39 13.05-13.18 39.66-.26 32.45 17.41z" fill="#ff4f4e"/><path d="m87.05 23.78a29.33 29.33 0 0 1 -7.55 9.37h-18.09s-6.49-3.58-9.87-9.39c2.11-1.29 9.7-3.88 17.23-2.08 0 0 9.88-2.49 18.28 2.1z" fill="#c42c31"/><path d="m44.55 56s24.63-6.4 24.63-19.25c0 0 5.67 17.75 24.73 19.23l4.09 3.08a14.53 14.53 0 0 1 3.86-2.24s4.95-39.07-32.74-33.82c0 0-11.7-2.63-21.35 4.05-14 9.66-8.38 30.87-8.38 30.87z" fill="#ff4f4e"/><path d="m52.37 73.4a.67.67 0 0 1 -.67.67.68.68 0 1 1 .67-.67z" fill="#ff8a8a"/><path d="m55.67 75a.68.68 0 1 1 -.68-.68.67.67 0 0 1 .68.68z" fill="#ff8a8a"/><path d="m52.37 77.37a.68.68 0 0 1 -.67.68.69.69 0 0 1 -.68-.68.68.68 0 0 1 .68-.67.67.67 0 0 1 .67.67z" fill="#ff8a8a"/><path d="m57.55 78.05a.67.67 0 0 1 -.67.67.68.68 0 1 1 .67-.67z" fill="#ff8a8a"/><path d="m61 77.37a.69.69 0 0 1 -.68.68.68.68 0 0 1 -.67-.68.67.67 0 0 1 .67-.67.68.68 0 0 1 .68.67z" fill="#ff8a8a"/><path d="m59.44 74.07a.69.69 0 0 1 -.68.68.68.68 0 0 1 -.67-.68.67.67 0 0 1 .67-.67.68.68 0 0 1 .68.67z" fill="#ff8a8a"/><path d="m86.72 73.4a.68.68 0 1 0 .68-.68.67.67 0 0 0 -.68.68z" fill="#ff8a8a"/><path d="m83.43 75a.67.67 0 0 0 .67.67.68.68 0 1 0 -.67-.67z" fill="#ff8a8a"/><path d="m86.72 77.37a.68.68 0 1 0 1.35 0 .68.68 0 0 0 -1.35 0z" fill="#ff8a8a"/><path d="m81.54 78.05a.68.68 0 1 0 .68-.68.67.67 0 0 0 -.68.68z" fill="#ff8a8a"/><path d="m78.09 77.37a.68.68 0 1 0 .67-.67.67.67 0 0 0 -.67.67z" fill="#ff8a8a"/><path d="m79.66 74.07a.68.68 0 1 0 .67-.67.67.67 0 0 0 -.67.67z" fill="#ff8a8a"/><path d="m41.46 73s4.64-9.79 3.09-17l-6.09-3.87s.95 14.8 3 20.87z" fill="#ff4f4e"/><path d="m97 73s-4.64-9.79-3.1-17l5.1-1.5s.75 12.38-2 18.5z" fill="#ff4f4e"/><path d="m50 61.3a13.82 13.82 0 0 1 5.5-5.75c5.39-3.35 9.26 2.45 9.26 2.45s-4.21-1.47-7.45-.44a36.82 36.82 0 0 0 -7.31 3.74z" fill="#ff4f4e"/><path d="m89.59 61.3a13.82 13.82 0 0 0 -5.5-5.75c-5.37-3.35-9.24 2.45-9.24 2.45s4.21-1.47 7.45-.44a36.82 36.82 0 0 1 7.29 3.74z" fill="#ff4f4e"/><path d="m70.58 81.89a7.71 7.71 0 0 1 -3.07-.73.75.75 0 0 1 -.45-.78l1.57-12a.75.75 0 1 1 1.49.19l-1.5 11.43a3.9 3.9 0 0 0 3.75-.14.75.75 0 1 1 .84 1.24 4.53 4.53 0 0 1 -2.63.79z" fill="#ff8a8a"/><path d="m69.09 89.85a17.66 17.66 0 0 1 -1.85-.1 17.18 17.18 0 0 1 -5.93-1.75.75.75 0 0 1 .69-1.34c.36.21 8.94 4.84 16.37-2a.76.76 0 0 1 1.06 0 .75.75 0 0 1 0 1.06 14.85 14.85 0 0 1 -10.34 4.13z" fill="#ff8a8a"/><path d="m70.4 94.25a11.93 11.93 0 0 1 -3.24-.45.75.75 0 1 1 .44-1.44c.05 0 3.48 1 5.89-.32a.77.77 0 0 1 1 .29.75.75 0 0 1 -.29 1 7.83 7.83 0 0 1 -3.8.92z" fill="#ff8a8a"/><path d="m60.28 65.83c0 2.1-.73 3.81-1.72 3.83s-1.82-1.66-1.86-3.76.74-3.81 1.73-3.83 1.82 1.67 1.85 3.76z" fill="#3f2037"/><path d="m79 65.83c0 2.1.74 3.81 1.72 3.83s1.82-1.66 1.86-3.76-.73-3.81-1.72-3.83-1.86 1.67-1.86 3.76z" fill="#3f2037"/><path d="m56.57 80.52a11.56 11.56 0 1 1 11.56-11.52 11.57 11.57 0 0 1 -11.56 11.52zm0-22.12a10.56 10.56 0 1 0 10.56 10.6 10.58 10.58 0 0 0 -10.56-10.6z" fill="#fff"/><path d="m82.58 80.52a11.56 11.56 0 1 1 11.56-11.52 11.57 11.57 0 0 1 -11.56 11.52zm0-22.12a10.56 10.56 0 1 0 10.56 10.6 10.58 10.58 0 0 0 -10.56-10.6z" fill="#fff"/><path d="m46.82 64.24a.52.52 0 0 1 -.43-.24s-3.23-5.2-8.1-7a.5.5 0 1 1 .35-.93c5.2 2 8.47 7.24 8.6 7.46a.5.5 0 0 1 -.16.69.48.48 0 0 1 -.26.02z" fill="#fff"/><path d="m93.22 64.24a.53.53 0 0 1 -.27-.08.5.5 0 0 1 -.15-.69c.15-.24 3.77-5.73 9-7.7a.52.52 0 0 1 .65.3.5.5 0 0 1 -.29.64c-4.92 1.85-8.48 7.29-8.52 7.29a.51.51 0 0 1 -.42.24z" fill="#fff"/><path d="m71.52 67.89a.51.51 0 0 1 -.5-.45 1.57 1.57 0 0 0 -1.54-1.44 1.49 1.49 0 0 0 -1.48 1.42.5.5 0 1 1 -1-.06 2.46 2.46 0 0 1 2.48-2.36 2.56 2.56 0 0 1 2.52 2.34.5.5 0 0 1 -.45.55z" fill="#fff"/></svg>