<svg viewBox="0 0 137.2 153.08" xmlns="http://www.w3.org/2000/svg"><path d="m31.21 126.38s-10.21-8.57-4.16-22.55 23.62-16 40.56-16.06c25.85 0 56.72 8.89 36.12 38.61 0 0-25.64 16.96-72.52 0z" fill="#ff9a40"/><path d="m56.7 109.63a.77.77 0 0 1 -.73-.54c-1.89-5.85-7.11-9.52-7.16-9.56a.77.77 0 0 1 .88-1.27 22.29 22.29 0 0 1 7.75 10.36.77.77 0 0 1 -.5 1 .67.67 0 0 1 -.24.01z" fill="#e96d17"/><path d="m67.66 120a.78.78 0 0 1 -.65-.36c-6.74-10.5-26.79-13.54-27-13.57a.77.77 0 1 1 .22-1.53c.85.13 20.95 3.17 28.07 14.26a.77.77 0 0 1 -.23 1.07.72.72 0 0 1 -.41.13z" fill="#e96d17"/><path d="m137.2 153.08h-137.2s1.38-17.08 9.66-20.43c3.35-1.34 11-5.15 19-9.23 11.12-5.69 22.79-11.89 24-12.52l.1-.06 1.05.24c1.31.29 2.62.55 3.94.75s2.62.39 3.93.51a65.13 65.13 0 0 0 21.68-1.49s9 4.63 19 9.66l3.88 2c8.84 4.43 17.7 8.76 21.31 10.2 8.27 3.29 9.65 20.37 9.65 20.37z" fill="#ff9a40"/><path d="m75 131.3a43.81 43.81 0 0 1 -18.26-4 41.3 41.3 0 0 1 -11.21-7.36.71.71 0 0 1 0-1 .72.72 0 0 1 1 0 40.9 40.9 0 0 0 10.83 7.06 42.18 42.18 0 0 0 28.45 2.46.72.72 0 1 1 .36 1.4 44.49 44.49 0 0 1 -11.17 1.44z" fill="#e96d17"/><path d="m71.41 138.25a39.09 39.09 0 0 1 -8-.84.72.72 0 0 1 .29-1.42c14.3 3.01 23.19-3.27 23.3-3.34a.71.71 0 0 1 1 .17.72.72 0 0 1 -.16 1c-.33.23-6.33 4.43-16.43 4.43z" fill="#e96d17"/><path d="m84.07 114.34s-2.69 8.46-15.07 8.46c-14.42 0-17.81-7.69-17.81-7.69a62.78 62.78 0 0 0 2.7-9.11 50 50 0 0 0 1.15-11.42l25.33-1c.24 2.14.62 4.67 1.05 7.21 1.15 6.71 2.65 13.55 2.65 13.55z" fill="#ffb8a1"/><path d="m81.43 100.75c-3.93 2.73-12.51 6.79-27.53 5.21a50 50 0 0 0 1.15-11.42l25.33-1c.24 2.14.62 4.67 1.05 7.21z" fill="#3f2037"/><path d="m45.38 61.5s-7.84-10.67-13.94-4.35 5.66 28.31 16.33 23.52z" fill="#ffb8a1"/><path d="m41.64 74.11a.54.54 0 0 1 -.54-.46c-1-7.42-6.92-12-7-12a.54.54 0 0 1 .65-.87 20.86 20.86 0 0 1 7.4 12.73.53.53 0 0 1 -.46.61z" fill="#ff8a8a"/><path d="m40 68.79a.52.52 0 0 1 -.45-.24c-.79-1.16-3.14-1.28-4-1.23a.54.54 0 1 1 -.07-1.08c.15 0 3.65-.21 4.94 1.7a.55.55 0 0 1 -.14.76.55.55 0 0 1 -.28.09z" fill="#ff8a8a"/><path d="m93.14 61.5s7.84-10.67 13.94-4.35-5.66 28.31-16.33 23.52z" fill="#ffb8a1"/><path d="m96.88 74.11h-.07a.53.53 0 0 1 -.46-.61 20.86 20.86 0 0 1 7.4-12.73.54.54 0 0 1 .65.87c-.06 0-6 4.61-7 12a.54.54 0 0 1 -.52.47z" fill="#ff8a8a"/><path d="m98.52 68.79a.55.55 0 0 1 -.3-.09.55.55 0 0 1 -.14-.76c1.29-1.91 4.79-1.71 4.94-1.7a.54.54 0 1 1 -.07 1.08c-.84 0-3.19.07-4 1.23a.52.52 0 0 1 -.43.24z" fill="#ff8a8a"/><path d="m75.87 30.39c-21.93-5.39-41.78 14.48-36.87 36.51 3.5 15.54 11.16 35.15 30 35.59 19.62.47 27.49-20.9 30.29-37.1a30.44 30.44 0 0 0 -20.38-34.13c-.99-.32-2-.61-3.04-.87z" fill="#ffb8a1"/><path d="m70.58 80.31a7.75 7.75 0 0 1 -3.08-.74.75.75 0 0 1 -.46-.8l1.57-12a.77.77 0 0 1 .86-.67.78.78 0 0 1 .67.87l-1.49 11.4a3.83 3.83 0 0 0 3.7-.15.79.79 0 0 1 1.08.21.78.78 0 0 1 -.21 1.08 4.64 4.64 0 0 1 -2.64.8z" fill="#ff8a8a"/><path d="m69.14 88.25a17.91 17.91 0 0 1 -7.84-1.86.77.77 0 0 1 -.3-1 .76.76 0 0 1 1-.3c.38.21 8.93 4.82 16.34-2a.77.77 0 0 1 1 1.14 14.78 14.78 0 0 1 -10.2 4.02z" fill="#ff8a8a"/><path d="m70.4 92.67a11.92 11.92 0 0 1 -3.25-.46.77.77 0 0 1 -.51-1 .78.78 0 0 1 1-.51s3.46 1 5.87-.31a.78.78 0 0 1 1.06.29.77.77 0 0 1 -.3 1.05 7.77 7.77 0 0 1 -3.87.94z" fill="#ff8a8a"/><path d="m54.08 58.32a20.85 20.85 0 0 1 6.45-2.32 2 2 0 0 0 1.64-2.67l-.09-.24a2 2 0 0 0 -2.08-1.34c-2.11.22-5.84 1-8.28 3.39a2 2 0 0 0 -.49 2 2 2 0 0 0 2.85 1.18z" fill="#3f2037"/><path d="m86.06 58.32a20.85 20.85 0 0 0 -6.45-2.32 2 2 0 0 1 -1.61-2.69l.09-.24a2 2 0 0 1 2.1-1.32c2.11.22 5.84 1 8.28 3.39a2 2 0 0 1 .49 2 2 2 0 0 1 -2.9 1.18z" fill="#3f2037"/><path d="m59.74 72.22c0 1.9-3.5 3.43-7.82 3.43s-7.82-1.53-7.82-3.43 3.5-3.43 7.82-3.43 7.82 1.54 7.82 3.43z" fill="#ff8a8a" opacity=".5"/><path d="m96.52 72.22c0 1.9-3.5 3.43-7.82 3.43s-7.82-1.53-7.82-3.43 3.5-3.43 7.82-3.43 7.82 1.54 7.82 3.43z" fill="#ff8a8a" opacity=".5"/><g fill="#3f2037"><path d="m39.85 70.28s-4.12-22.69-2.85-27.88 3.94-4.24 3.94-4.24-22.22-18.16-11.17-28.54c8-7.47 17.2 8.52 17.2 8.52s-4.56-15.72 1.92-17.88c8.11-2.69 11.73 16.15 11.73 16.15s-.62-14.05 5.89-13.78c9.1.39 4 10.9 13.84 15s24.77 6.18 19.4 22.71c0 0 7.24-.31-1.77 29.19a17.69 17.69 0 0 1 -3.3-11.14c.15-3 .14-6.59-.49-8.76 0 0-5.64-3.94-5.38-9.7 0 0-19.87 11.79-38.19 1.28 0 0 1.15 6.79-4.61 7.81a39.88 39.88 0 0 0 -2.51 10.71 23.6 23.6 0 0 1 -3.5 10.27z"/><path d="m97.91 30s3.14-10.71 8.21-8c3.61 2-4.81 10.11-4.81 10.11s7.09-3.84 10.58-1.13-5.78 5.89-11.13 5-2.85-5.98-2.85-5.98z"/><path d="m60.28 64.23c0 2.09-.73 3.8-1.72 3.82s-1.82-1.67-1.86-3.76.74-3.81 1.73-3.82 1.82 1.66 1.85 3.76z"/><path d="m79 64.23c0 2.09.74 3.8 1.72 3.82s1.82-1.67 1.86-3.76-.73-3.81-1.72-3.82-1.86 1.66-1.86 3.76z"/></g><path d="m48.55 131.56v21.52h-1.55v-21.52a.81.81 0 0 1 .15-.46.79.79 0 0 1 1.4.46z" fill="#fff"/><path d="m91.52 131.56v21.52h-1.52v-21.52a.78.78 0 0 1 .78-.77.77.77 0 0 1 .73.53.64.64 0 0 1 .01.24z" fill="#fff"/></svg>