<svg viewBox="0 0 137.2 143.31" xmlns="http://www.w3.org/2000/svg"><path d="m137.2 143.31h-137.2s1.38-17.12 9.66-20.43c3.35-1.34 11-5.16 19-9.23l8.77-4.53.89-.47 6.44-3.36c4.26-2.24 7.31-3.86 7.89-4.17l.1-.05 1 .23c1.32.3 2.64.55 4 .76s2.61.38 3.93.51a65.6 65.6 0 0 0 21.67-1.49s3.22 1.66 8 4.07l6.57 3.34.9.46 3.55 1.79 3.88 2c8.84 4.42 17.7 8.75 21.31 10.2 8.26 3.25 9.64 20.37 9.64 20.37z" fill="#ff4f4e"/><path d="m98.8 108.94c-.47 1.37-1 2.77-1.63 4.17a34.71 34.71 0 0 1 -9.59 13.11 27.31 27.31 0 0 1 -17.71 6c-14.35 0-23.21-8.41-28.11-15.46a51.39 51.39 0 0 1 -4.35-7.62l.89-.47a50 50 0 0 0 4.3 7.55c6.93 10 16.11 15 27.27 15 12 0 20.93-6.22 26.38-18.49.63-1.42 1.18-2.84 1.65-4.23z" fill="#c42c31"/><path d="m91.33 105.14c-1.73 7.44-8.27 18.75-22.73 18.75-15.87 0-21.83-12.84-23.86-18.6 4.26-2.24 7.31-3.86 7.89-4.17l.1-.05 1 .23c1.32.3 2.64.55 4 .76s2.61.38 3.93.51a65.6 65.6 0 0 0 21.67-1.49s3.26 1.65 8 4.06z" fill="#fff7f1"/><path d="m84.07 104.56s-2.69 8.44-15.07 8.44c-14.42 0-17.81-7.69-17.81-7.69a63 63 0 0 0 2.69-9.14 50.09 50.09 0 0 0 1.15-11.42l25.33-1c.24 2.15.62 4.68 1.05 7.22 1.17 6.75 2.66 13.59 2.66 13.59z" fill="#ffb8a1"/><path d="m81.43 91c-3.93 2.73-12.51 6.79-27.53 5.21a50.09 50.09 0 0 0 1.15-11.42l25.33-1c.24 2.12.62 4.65 1.05 7.21z" fill="#3f2037"/><path d="m45.38 51.73s-7.84-10.67-13.94-4.36 5.66 28.32 16.33 23.52z" fill="#ffb8a1"/><path d="m41.64 64.34a.55.55 0 0 1 -.54-.47c-1-7.41-6.92-12-7-12a.54.54 0 0 1 .65-.86 20.86 20.86 0 0 1 7.41 12.72.54.54 0 0 1 -.47.61z" fill="#ff8a8a"/><path d="m40 59a.53.53 0 0 1 -.45-.23c-.79-1.17-3.14-1.29-4-1.23a.53.53 0 0 1 -.55-.54.54.54 0 0 1 .5-.58c.15 0 3.65-.2 4.94 1.71a.53.53 0 0 1 -.14.75.55.55 0 0 1 -.3.12z" fill="#ff8a8a"/><path d="m93.14 51.73s7.84-10.67 13.94-4.36-5.66 28.32-16.33 23.52z" fill="#ffb8a1"/><path d="m96.88 64.34h-.07a.53.53 0 0 1 -.46-.61 20.82 20.82 0 0 1 7.4-12.73.54.54 0 1 1 .65.86c-.06 0-6 4.61-7 12a.55.55 0 0 1 -.52.48z" fill="#ff8a8a"/><path d="m98.52 59a.55.55 0 0 1 -.3-.09.53.53 0 0 1 -.14-.75c1.29-1.91 4.79-1.71 4.94-1.71a.55.55 0 0 1 .51.58.55.55 0 0 1 -.58.51c-.84 0-3.19.07-4 1.23a.53.53 0 0 1 -.43.23z" fill="#ff8a8a"/><path d="m74.27 18.63c-22.35-.01-36.27 11.57-33.73 38.15 1.46 15.87 9.65 35.5 28.46 35.94 19.62.46 27.49-20.9 30.29-37.11 2.57-14.83-5-31.27-19.28-36a31.58 31.58 0 0 0 -5.74-.98z" fill="#ffb8a1"/><path d="m40.28 51.93s-2.6-25.19-2.68-30.78c-.18-13.58 13.52-21.15 33.63-21.15 16.21 0 18.21 7.14 19.52 12.88 0 0 12 .31 13.82 8.67s-5.79 33.6-5.79 33.6a82.55 82.55 0 0 1 -4.37-14.15c-1.83-8.38-4.21-13.49-9.41-13.6s-11.75.16-18.81 4.34-14.1 4.7-19.07 1c-.03.04-1.35 12.66-6.84 19.19z" fill="#3f2037"/><path d="m59.74 62.45c0 1.89-3.5 3.43-7.82 3.43s-7.82-1.54-7.82-3.43 3.5-3.45 7.82-3.45 7.82 1.55 7.82 3.45z" fill="#ff8a8a" opacity=".5"/><path d="m96.52 62.45c0 1.89-3.5 3.43-7.82 3.43s-7.82-1.54-7.82-3.43 3.5-3.45 7.82-3.45 7.82 1.55 7.82 3.45z" fill="#ff8a8a" opacity=".5"/><path d="m99.45 51.93a142.27 142.27 0 0 1 -3.82 27.7c-5.86 24.73-26 21.44-26 21.44s-19.63 3.29-25.53-21.44a142.27 142.27 0 0 1 -3.82-27.7l3.21-5.36s2.25 21.31 10.41 25c0 0 3.62-5.51 15.77-.36 12.15-5.15 16.17.36 16.17.36 8.16-3.69 10.41-25 10.41-25z" fill="#3f2037"/><path d="m70.58 69.12a7.75 7.75 0 0 1 -3.08-.74.75.75 0 0 1 -.46-.81l1.57-12a.77.77 0 0 1 .86-.67.78.78 0 0 1 .67.87l-1.49 11.41a3.9 3.9 0 0 0 3.71-.18.77.77 0 0 1 .86 1.28 4.57 4.57 0 0 1 -2.64.84z" fill="#ff8a8a"/><path d="m69.14 78.47a17.91 17.91 0 0 1 -7.84-1.86.77.77 0 0 1 -.3-1 .78.78 0 0 1 1-.3c.38.21 8.94 4.82 16.34-2a.77.77 0 1 1 1 1.13 14.78 14.78 0 0 1 -10.2 4.03z" fill="#734669"/><path d="m70.4 82.89a12.13 12.13 0 0 1 -3.25-.45.78.78 0 0 1 -.51-1 .77.77 0 0 1 1-.51s3.46 1 5.87-.32a.78.78 0 0 1 1.06.29.77.77 0 0 1 -.3 1.06 7.86 7.86 0 0 1 -3.87.93z" fill="#734669"/><g fill="#3f2037"><path d="m54.08 48.55a20.6 20.6 0 0 1 6.45-2.34 2 2 0 0 0 1.64-2.67l-.09-.25a2 2 0 0 0 -2.08-1.29c-2.11.22-5.84 1-8.28 3.39a2 2 0 0 0 -.49 2 2 2 0 0 0 2.85 1.16z"/><path d="m86.06 48.55a20.6 20.6 0 0 0 -6.45-2.34 2 2 0 0 1 -1.61-2.67l.09-.25a2 2 0 0 1 2.07-1.29c2.11.22 5.84 1 8.28 3.39a2 2 0 0 1 .49 2 2 2 0 0 1 -2.87 1.16z"/><path d="m60.28 54.45c0 2.1-.73 3.81-1.72 3.82s-1.82-1.66-1.86-3.76.74-3.8 1.73-3.82 1.82 1.67 1.85 3.76z"/><path d="m79 54.45c0 2.1.74 3.81 1.72 3.82s1.83-1.66 1.86-3.76-.73-3.8-1.72-3.82-1.86 1.67-1.86 3.76z"/></g></svg>