<svg viewBox="0 0 137.2 138.11" xmlns="http://www.w3.org/2000/svg"><path d="m41.66 63.61s-4.17 10.53-1.83 14.09 6.86-3.52 6.86-3.52-3.61 12.88 1.41 14.17 10.39-9.78 10.39-9.78-9.61-19.57-16.83-14.96z" fill="#3f2037"/><path d="m95.84 63.61s4.16 10.53 1.83 14.09-6.85-3.52-6.85-3.52 3.61 12.88-1.42 14.17-10.4-9.78-10.4-9.78 9.63-19.57 16.84-14.96z" fill="#3f2037"/><path d="m137.2 138.11h-137.2s.12-1.54.52-3.8c.14-.76.3-1.6.51-2.5a38.82 38.82 0 0 1 1.58-5.3 26.71 26.71 0 0 1 1.08-2.51 14.46 14.46 0 0 1 4.16-5.31 8.46 8.46 0 0 1 1.81-1c.86-.34 2-.85 3.38-1.49 2.86-1.33 6.68-3.21 10.82-5.31 1.56-.78 3.16-1.6 4.78-2.43l.13-.07c3.49-1.78 7-3.61 10.27-5.31l3.09-1.61 1.69-.89.26-.13c4.44-2.33 7.71-4.07 8.47-4.48h.07l.1-.06 1.05.24c1.31.3 2.62.55 3.94.76s2.62.38 3.93.51a65.4 65.4 0 0 0 21.68-1.5l8 4.12 1.14.58 4.92 2.5 4.88 2.47 3.88 1.94c.6.31 1.2.6 1.8.9 1.7.86 3.4 1.7 5 2.5 4.24 2.09 8.15 4 11.05 5.31 1.39.64 2.56 1.15 3.42 1.49a8.46 8.46 0 0 1 1.81 1 14.46 14.46 0 0 1 4.16 5.31 26.71 26.71 0 0 1 1.08 2.51 38.82 38.82 0 0 1 1.58 5.3c.2.9.37 1.74.51 2.5.53 2.22.65 3.76.65 3.76z" fill="#0075cf"/><path d="m97.47 103.07h-58.47l4.78-2.5h48.77z" fill="#0056a8"/><path d="m113.07 110.88h-89.21c1.56-.78 3.16-1.6 4.78-2.43l.13-.07h79.23c1.73.86 3.43 1.7 5.07 2.5z" fill="#0056a8"/><path d="m129.35 118.69h-121.5a8.46 8.46 0 0 1 1.81-1c.86-.34 2-.85 3.38-1.49h111.08c1.39.64 2.56 1.15 3.42 1.49a8.46 8.46 0 0 1 1.81 1z" fill="#0056a8"/><path d="m134.59 126.51h-131.98a26.71 26.71 0 0 1 1.08-2.51h129.82a26.71 26.71 0 0 1 1.08 2.51z" fill="#0056a8"/><path d="m136.68 134.31h-136.16c.14-.76.3-1.6.51-2.5h135.14c.2.9.37 1.74.51 2.5z" fill="#0056a8"/><path d="m91.41 100c-1.57 5.54-8.37 14.25-22.81 14.25-14.94 0-23.22-8.07-26.47-12.78l1.69-.89.26-.13c4.44-2.33 7.71-4.07 8.47-4.48h.07l.1-.06 1.05.24c1.31.3 2.62.55 3.94.76s2.62.38 3.93.51a65.4 65.4 0 0 0 21.68-1.5z" fill="#0056a8"/><path d="m84.07 99.37s-2.69 8.46-15.06 8.46c-14.42 0-17.81-7.69-17.81-7.69a62.78 62.78 0 0 0 2.69-9.14 50 50 0 0 0 1.15-11.41l25.33-1c.24 2.15.62 4.67 1.05 7.21 1.15 6.73 2.65 13.57 2.65 13.57z" fill="#ffb8a1"/><path d="m81.43 85.78c-3.93 2.73-12.51 6.8-27.53 5.22a50 50 0 0 0 1.15-11.41l25.33-1c.24 2.13.62 4.65 1.05 7.19z" fill="#3f2037"/><path d="m45.38 46.53s-7.84-10.67-13.94-4.35 5.66 28.31 16.33 23.52z" fill="#ffb8a1"/><path d="m41.64 59.15a.55.55 0 0 1 -.54-.47c-1-7.42-6.92-12-7-12a.54.54 0 0 1 -.11-.76.53.53 0 0 1 .76-.1 20.86 20.86 0 0 1 7.41 12.72.54.54 0 0 1 -.47.61z" fill="#ff8a8a"/><path d="m40 53.82a.52.52 0 0 1 -.45-.24c-.79-1.16-3.14-1.28-4-1.23a.55.55 0 0 1 -.58-.5.55.55 0 0 1 .51-.58c.15 0 3.65-.2 4.94 1.71a.54.54 0 0 1 -.14.75.55.55 0 0 1 -.28.09z" fill="#ff8a8a"/><path d="m93.87 46.53s7.84-10.67 13.94-4.35-5.66 28.31-16.34 23.52z" fill="#ffb8a1"/><path d="m97.61 59.15h-.08a.54.54 0 0 1 -.46-.61 20.87 20.87 0 0 1 7.4-12.72.53.53 0 0 1 .76.1.54.54 0 0 1 -.1.76c-.06 0-6 4.61-7 12a.55.55 0 0 1 -.52.47z" fill="#ff8a8a"/><path d="m99.25 53.82a.55.55 0 0 1 -.3-.09.55.55 0 0 1 -.15-.73c1.3-1.91 4.8-1.72 5-1.71a.54.54 0 0 1 -.07 1.08c-.84-.05-3.2.07-4 1.23a.52.52 0 0 1 -.48.22z" fill="#ff8a8a"/><path d="m75.87 15.43c-21.93-5.36-37.1 10.83-35.07 35.83 1.29 15.88 9.39 35.82 28.2 36.27 19.63.47 29.87-18.38 29.87-40.37 0-16.82-5.65-26.18-20-30.87-.95-.29-1.96-.61-3-.86z" fill="#ffb8a1"/><path d="m37.77 28.4s-4.34 10-2.78 11.84c1.34 1.53 3.38.48 3.38.48s-.84 11 3.81 11.39 4.07-20.11 4.07-20.11 7.69.21 6.24-6.16c0 0 19.93 3.79 35.3-.26 0 0-.64 6.14 4.55 7 0 0-3 18.64 2.49 20s5.23-11.45 5.23-11.45 2.42 0 3.36-.91c2.26-2.22-1.42-14.31-7.42-22.22-6.67-8.64-39.73-25.07-58.23 10.4z" fill="#3f2037"/><path d="m103.1 26.07s-1.46-.33-4.1-.76l-.81-.13c-2.69-.42-6.39-.92-10.87-1.31l-.79-.07c-3.2-.26-6.77-.47-10.64-.56h-.78c-3.33-.07-6.87 0-10.57.12h-.77c-3.45.17-7 .44-10.69.86l-.79.09q-5.38.65-11 1.73l-.81.16c-1.4.28-2.81.59-4.22.93 0 0 1.65-11.77 11.14-19.81.52-.44 1.05-.87 1.62-1.28a30 30 0 0 1 9.38-4.56l.94-.26a37.22 37.22 0 0 1 6.66-1.09l.79-.06c.81-.07 1.68-.07 2.58-.07 1.23 0 2.41 0 3.55.13l.8.07a38 38 0 0 1 6.66 1.18l1 .27a31.06 31.06 0 0 1 9.42 4.66 20 20 0 0 1 1.59 1.26 33.27 33.27 0 0 1 10.71 18.5z" fill="#ff4f4e"/><g fill="#c42c31"><path d="m49.06 6.06c-3.12 5.32-6.57 12.53-7.73 20a34.26 34.26 0 0 0 -.41 4.16h-.77a33.27 33.27 0 0 1 .37-4c1-6.93 4-13.64 6.92-18.88.56-.44 1.05-.87 1.62-1.28z"/><path d="m59.34 1.22a93.77 93.77 0 0 0 -6.26 23 56.87 56.87 0 0 0 -.44 6h-.77a57.5 57.5 0 0 1 .42-5.87 94.26 94.26 0 0 1 6.11-22.87z"/><path d="m66.75.07c-.62 4.39-1.75 13.43-2.21 23.28-.1 2.26-.17 4.56-.18 6.86h-.77c0-2.28.08-4.57.18-6.82.44-9.79 1.56-18.79 2.23-23.26z"/><path d="m76.08 30.2h-.78c0-2.34-.08-4.69-.19-7-.45-9.76-1.57-18.71-2.19-23.1l.8.07c.62 4.47 1.73 13.36 2.17 23 .11 2.36.17 4.7.19 7.03z"/><path d="m87.79 30.2h-.79a57.25 57.25 0 0 0 -.49-6.41 94.14 94.14 0 0 0 -6.13-22.41l1 .27a94.81 94.81 0 0 1 6 22.22 60.64 60.64 0 0 1 .41 6.33z"/><path d="m99.51 30.2h-.77a34.37 34.37 0 0 0 -.55-5c-1.27-7-4.47-13.78-7.43-18.86a20 20 0 0 1 1.59 1.26 59 59 0 0 1 6.65 17.71 35 35 0 0 1 .51 4.89z"/><path d="m34.65 27.15s-1.83 3.85.35 9.62c0 0 21.88-13.09 69.16-.85 0 0 3-3.35 0-9.41-.01 0-36.5-16-69.51.64z"/></g><path d="m70.58 65.34a7.72 7.72 0 0 1 -3.08-.73.77.77 0 0 1 -.5-.81l1.57-12a.77.77 0 0 1 1.53.2l-1.45 11.4a3.85 3.85 0 0 0 3.7-.14.77.77 0 1 1 .87 1.28 4.64 4.64 0 0 1 -2.64.8z" fill="#ff8a8a"/><path d="m69.14 73.28a17.91 17.91 0 0 1 -7.84-1.86.77.77 0 0 1 .75-1.35c.38.21 8.93 4.82 16.34-2a.77.77 0 1 1 1 1.13 14.78 14.78 0 0 1 -10.25 4.08z" fill="#ff8a8a"/><path d="m70.4 77.7a11.92 11.92 0 0 1 -3.25-.46.77.77 0 1 1 .46-1.47s3.46 1 5.87-.32a.78.78 0 0 1 1.06.29.77.77 0 0 1 -.3 1.05 7.77 7.77 0 0 1 -3.84.91z" fill="#ff8a8a"/><path d="m54.08 43.36a20.86 20.86 0 0 1 6.45-2.36 2 2 0 0 0 1.64-2.67l-.09-.24a2 2 0 0 0 -2.08-1.31c-2.11.22-5.84 1-8.28 3.39a2 2 0 0 0 -.49 2 2 2 0 0 0 2.85 1.19z" fill="#3f2037"/><path d="m86.06 43.36a20.86 20.86 0 0 0 -6.45-2.36 2 2 0 0 1 -1.61-2.66l.09-.24a2 2 0 0 1 2.1-1.32c2.11.22 5.84 1 8.28 3.39a2 2 0 0 1 .49 2 2 2 0 0 1 -2.9 1.19z" fill="#3f2037"/><path d="m59.74 57.25c0 1.9-3.5 3.44-7.82 3.44s-7.82-1.54-7.82-3.44 3.5-3.43 7.82-3.43 7.82 1.54 7.82 3.43z" fill="#ff8a8a" opacity=".5"/><path d="m96.52 57.25c0 1.9-3.5 3.44-7.82 3.44s-7.82-1.54-7.82-3.44 3.5-3.43 7.82-3.43 7.82 1.54 7.82 3.43z" fill="#ff8a8a" opacity=".5"/><path d="m60.28 49.26c0 2.09-.73 3.8-1.72 3.82s-1.82-1.66-1.86-3.76.74-3.8 1.73-3.82 1.82 1.66 1.85 3.76z" fill="#3f2037"/><path d="m79 49.26c0 2.09.74 3.8 1.72 3.82s1.82-1.66 1.86-3.76-.73-3.8-1.72-3.82-1.86 1.66-1.86 3.76z" fill="#3f2037"/></svg>